# xmcd
#
# Track frame offsets:
#	150
#	22810
#	41010
#	72425
#	92992
#	116702
#	137505
#	165955
#
# Disc length: 2469 seconds
#
# Revision: 0
# Processed by: cddbd v1.4PL0 Copyright (c) Steve Scherf et al.
# Submitted via: dBpowerAMP V4.0
#
DISCID=6209a308
DTITLE=Big Joe Turner - Texas Style
DYEAR=1900
DGENRE=Blues
TTITLE0=TV Mama
TTITLE1=Hide And Seek
TTITLE2=I've Got A Pocketful Of Pencil
TTITLE3=Rock Me Baby
TTITLE4=Texas Style
TTITLE5=Cherry Red
TTITLE6='Taint Nobody's Bizness If I Do
TTITLE7=Money First
EXTD=
EXTT0=
EXTT1=
EXTT2=
EXTT3=
EXTT4=
EXTT5=
EXTT6=
EXTT7=
PLAYORDER=
